<?xml version="1.0" encoding="iso-8859-1"?>
<!-- Generator: Adobe Illustrator 19.0.0, SVG Export Plug-In . SVG Version: 6.00 Build 0)  -->
<svg version="1.1" id="Capa_1" xmlns="http://www.w3.org/2000/svg" xmlns:xlink="http://www.w3.org/1999/xlink" x="0px" y="0px"
	 viewBox="0 0 511.999 511.999" style="enable-background:new 0 0 511.999 511.999;" xml:space="preserve">
<path style="fill:#896748;" d="M146.501,154.501c6,5.7,6,15.3,0,21c-2.699,3.001-6.599,4.501-10.499,4.501
	c-3.9,0-7.8-1.5-10.499-4.501c-17.1-16.8-26.099-40.198-24.9-63.899c1.5-23.999,12.599-46.198,31.198-61.198
	c1.201-1.199,2.701-2.1,4.2-2.401c5.7-2.401,12.599-0.899,16.8,4.501c5.4,6.299,4.2,15.899-2.1,21
	c-6.599,5.099-11.7,11.699-14.7,19.199c-3.3,6.301-5.099,13.2-5.4,20.4c-0.3,9.3,1.5,18.001,5.4,26.101
	C138.403,144.9,142.003,150.002,146.501,154.501z"/>
<g>
	<path style="fill:#73553A;" d="M146.501,154.501c6,5.7,6,15.3,0,21c-2.699,3.001-6.599,4.501-10.499,4.501v-40.799
		C138.403,144.9,142.003,150.002,146.501,154.501z"/>
	<path style="fill:#73553A;" d="M150.701,73.504c-6.599,5.099-11.7,11.699-14.7,19.199V48.003c5.7-2.401,12.599-0.899,16.8,4.501
		C158.201,58.802,157.002,68.403,150.701,73.504z"/>
</g>
<path style="fill:#6ECD24;" d="M176.501,145.501L146.501,175.5c-2.699,3.001-6.599,4.501-10.499,4.501c-3.9,0-7.8-1.5-10.499-4.501
	l-59.999-59.999c-6-5.7-6-15.3,0-21c5.7-5.999,15.298-5.999,20.999,0l49.5,49.199l19.501-19.2c5.7-5.999,15.298-5.999,20.999,0
	C182.501,130.201,182.501,139.801,176.501,145.501z"/>
<path style="fill:#66BD21;" d="M176.501,145.501L146.501,175.5c-2.699,3.001-6.599,4.501-10.499,4.501v-36.3l19.501-19.2
	c5.7-5.999,15.298-5.999,20.999,0C182.501,130.201,182.501,139.801,176.501,145.501z"/>
<path style="fill:#E5E5E5;" d="M208.3,156.3c-2.999-3.9-7.5-6.299-12.299-6.299H76.004c-4.799,0-9.3,2.399-12.299,6.299
	c-2.701,3.9-3.602,9.001-1.8,13.5l29.999,90.998c1.8,6,7.5,10.201,14.099,10.201h59.999c6.599,0,12.299-4.2,14.099-10.201
	L210.1,169.8C211.902,165.302,211.001,160.201,208.3,156.3z"/>
<path style="fill:#D9D9D9;" d="M208.3,156.3c2.701,3.9,3.602,9.001,1.8,13.5l-29.999,90.998c-1.8,6-7.5,10.201-14.099,10.201
	h-29.999V150.001h59.999C200.8,150.002,205.301,152.4,208.3,156.3z"/>
<path style="fill:#57555C;" d="M14.99,511.994c-2.256,0-4.541-0.513-6.694-1.582c-7.412-3.706-10.415-12.715-6.709-20.127
	L107.585,279.29c3.721-7.427,12.7-10.4,20.127-6.709c7.412,3.706,10.415,12.715,6.709,20.127L28.423,503.703
	C25.786,508.961,20.498,511.994,14.99,511.994z"/>
<path style="fill:#3C3A41;" d="M497.009,511.994c-5.508,0-10.796-3.032-13.433-8.291L371.588,280.711
	c-3.706-7.412-0.703-16.421,6.709-20.127c7.397-3.691,16.392-0.703,20.127,6.709l111.989,222.992
	c3.706,7.412,0.703,16.421-6.709,20.127C501.55,511.481,499.265,511.994,497.009,511.994z"/>
<path style="fill:#FEDB41;" d="M166.002,0.005c-11.7,0-22.2,4.499-29.999,11.7c-9.3,8.099-15,20.099-15,33.299s5.7,25.198,15,33.299
	c7.8,7.2,18.3,11.7,29.999,11.7c24.9,0,44.999-20.101,44.999-44.999C211.001,20.104,190.902,0.005,166.002,0.005z"/>
<path style="fill:#FEA832;" d="M121.003,300.999H30.005c-16.569,0-29.999-13.431-29.999-29.999l0,0
	C0.006,254.431,13.436,241,30.005,241h90.998l29.999,29.999L121.003,300.999z"/>
<path style="fill:#FE9923;" d="M481.995,300.999h-90.998l-29.999-29.999L390.997,241h90.998c16.569,0,29.999,13.431,29.999,29.999
	l0,0C511.995,287.567,498.563,300.999,481.995,300.999z"/>
<path style="fill:#FF3B3B;" d="M390.997,241v104.998c0,24.898-20.099,44.999-44.999,44.999c-11.7,0-21.899-4.501-29.999-11.7
	c-8.101,7.2-18.3,11.7-29.999,11.7c-11.4,0-21.898-4.501-29.999-11.4c-8.101,6.899-18.6,11.4-29.999,11.4
	c-11.7,0-21.899-4.501-29.999-11.7c-8.101,7.2-18.3,11.7-29.999,11.7c-24.9,0-44.999-20.101-44.999-44.999V241L390.997,241
	L390.997,241z"/>
<path style="fill:#E81E0F;" d="M390.997,241v104.998c0,24.898-20.099,44.999-44.999,44.999c-11.7,0-21.899-4.501-29.999-11.7
	c-8.101,7.2-18.3,11.7-29.999,11.7c-11.4,0-21.898-4.501-29.999-11.4V241L390.997,241L390.997,241z"/>
<path style="fill:#FCBF29;" d="M166.002,90.003c-11.7,0-22.2-4.501-29.999-11.7V11.705c7.8-7.202,18.3-11.7,29.999-11.7
	c24.9,0,44.999,20.099,44.999,44.999C211.001,69.902,190.902,90.003,166.002,90.003z"/>
<g>
</g>
<g>
</g>
<g>
</g>
<g>
</g>
<g>
</g>
<g>
</g>
<g>
</g>
<g>
</g>
<g>
</g>
<g>
</g>
<g>
</g>
<g>
</g>
<g>
</g>
<g>
</g>
<g>
</g>
</svg>
