<?xml version="1.0" encoding="utf-8"?>
<!-- Generator: Adobe Illustrator 24.0.0, SVG Export Plug-In . SVG Version: 6.00 Build 0)  -->
<svg version="1.1" id="Layer_1" xmlns="http://www.w3.org/2000/svg" xmlns:xlink="http://www.w3.org/1999/xlink" x="0px" y="0px"
	 viewBox="0 0 511 511" style="enable-background:new 0 0 511 511;" xml:space="preserve">
<style type="text/css">
	.st0{fill:#FFCDAC;}
	.st1{fill:#6BD5E1;}
	.st2{fill:#FFB677;}
	.st3{fill:#FF8364;}
	.st4{fill:#FFD98E;}
	.st5{fill:#A57541;}
</style>
<path class="st0" d="M378.7,313.1l67.3-66.6c25.2-25.2,73.5,6.6,47.4,37.3l-81.6,95.9c-3.2,3.8-6.9,7.1-10.9,9.9
	c-13.1,8.4-28.8,11.2-44.2,11.2h-121c-8.8,0-17.5,0.5-26.2,1.5l-34.8,3.9l-72.2-70.1c0,0,41-77.3,121.3-55.1
	c15,4.2,30.6,6.1,46.2,6.1h79.5c37.4,0,37.7,59.5-0.3,59.5H280"/>
<path class="st1" d="M127.3,497.5L196,427c0,0,0-0.1,0-0.1L79.5,313.8c0,0-0.1,0-0.1,0l-69.3,72L127.3,497.5z"/>
<path class="st2" d="M92.5,103.6c-21.8,2.1-38.8,20.4-38.8,42.7V192c0,7.9,6.4,14.3,14.3,14.3h97.9c7.9,0,14.3-6.4,14.3-14.3v-45.7
	c0-22.3-17.1-40.7-38.9-42.7"/>
<path class="st0" d="M164.8,62.2c0,26.5-21.5,47.9-47.9,47.9S69,88.7,69,62.2s21.5-47.9,47.9-47.9S164.8,35.8,164.8,62.2z"/>
<path class="st3" d="M219,103.6c-21.8,2.1-38.8,20.4-38.8,42.7V192c0,7.9,6.4,14.3,14.3,14.3h97.9c7.9,0,14.3-6.4,14.3-14.3v-45.7
	c0-22.3-17.1-40.7-38.9-42.7"/>
<path class="st0" d="M291.4,62.2c0,26.5-21.5,47.9-47.9,47.9s-47.9-21.5-47.9-47.9s21.5-47.9,47.9-47.9S291.4,35.8,291.4,62.2z"/>
<path class="st4" d="M345.5,103.6c-21.8,2.1-38.8,20.4-38.8,42.7V192c0,7.9,6.4,14.3,14.3,14.3h97.9c7.9,0,14.3-6.4,14.3-14.3v-45.7
	c0-22.3-17.1-40.7-38.9-42.7"/>
<path class="st0" d="M417.9,62.2c0,26.5-21.5,47.9-47.9,47.9c-26.5,0-47.9-21.5-47.9-47.9s21.5-47.9,47.9-47.9
	C396.4,14.3,417.9,35.8,417.9,62.2z"/>
<path class="st5" d="M248.6,343.8c-1.3-5.4-6.7-8.8-12.1-7.5c-5.4,1.3-8.8,6.7-7.5,12.1l0.1,0.4c1.1,4.6,5.2,7.8,9.8,7.8
	c0.8,0,1.5-0.1,2.3-0.3c5.4-1.3,8.8-6.7,7.5-12.1L248.6,343.8z"/>
</svg>
