<svg id="Layer_2" data-name="Layer 2" xmlns="http://www.w3.org/2000/svg" xmlns:xlink="http://www.w3.org/1999/xlink" viewBox="0 0 467.24 1001.63"><defs><style>.cls-1{fill:#774017;}.cls-2{fill:#fbb78a;}.cls-3{fill:#5c6ead;}.cls-4{fill:none;}.cls-5{fill:#8093ca;}.cls-6{fill:#fffdfa;}.cls-7{fill:#fffefb;}.cls-8{fill:#e38554;}.cls-9{fill:#fff;}.cls-10{fill:#514a42;}.cls-11{fill:#f2d7b1;}.cls-12{fill:#ffc033;}.cls-13{fill:#ffeab6;}.cls-14{fill:#402810;}.cls-15{fill:#c16161;}.cls-16{fill:#394279;}.cls-17{fill:#a9724a;}.cls-18{fill:#2f4793;}.cls-19{fill:#9d6946;}.cls-20{fill:#5a6eb3;}.cls-21{fill:#4a61a9;}.cls-22{fill:#6e82c0;}.cls-23{fill:#f1f3f8;}.cls-24{fill:#e0dedf;}.cls-25{fill:#b6b6ba;}.cls-26{fill:#cccacc;}.cls-27{fill:#bebebf;}.cls-28{fill:#d3d3d4;}.cls-29{fill:#a8724e;}.cls-30{fill:#b58661;}.cls-31{fill:#453c3a;}</style></defs><title>toemrer_27</title><path class="cls-1" d="M749.12,289.63a61.87,61.87,0,0,1-2.88,16.31c-.65,2.26-1.94,5.59-4.48,12.16-4.69,12.15-5.9,14.56-6.4,19.36l-.06.65-1.21-.11a286.81,286.81,0,0,0,.09-36.45c-.69-11.19-1.75-17.46-6.37-22.72-2.85-3.23-6-4.94-11.94-8.08-4.88-2.6-7.22-3.23-18.59-7.45-11-4.1-16.18-6.24-17.52-6.24-.19,0-.31,0-.35.13-.32.62,3.45,2.71,11.4,9.43a72.12,72.12,0,0,1,5.93,5.39,50.54,50.54,0,0,1,7.09,9.43q-7.87-3.3-15.89-6.56-12.95-5.26-25.68-10.23l-.56-.88c.35-.23.7-.46,1.06-.68a94.4,94.4,0,0,1,16.08-8.45,56,56,0,0,1,26.75-3.82c11.17,1.21,21.63,5.89,27.68,11,1,.83,2.42,2.13,4.09,3.78,2.8,2.75,6.3,6.45,9.75,10.58l1.09,1.32.12,1A54.93,54.93,0,0,1,749.12,289.63Z" transform="translate(-427.14 -192.25)"/><path class="cls-2" d="M741.44,399.05c-2.85,7.64-7.44,14.48-16.63,28.15,0,0-7.77,11.56-19,25-7.82,9.29-10.52,10.88-11.52,11.36a9.37,9.37,0,0,0-3.2,2.4,12.1,12.1,0,0,0-1.92,3.68c-1.28,2.75-3.75,4.07-7.52,6.08a30.24,30.24,0,0,1-7.71,2.83c-1.73,0-3.7,0-5.86-.16a106.13,106.13,0,0,1-49.35-14.77A99.43,99.43,0,0,1,606,454.45a131.07,131.07,0,0,1-12-11.6c-7.1-7.61-14-15.19-17.77-27.27a55.88,55.88,0,0,1-2.1-9.75,61.34,61.34,0,0,1-26.28-18.63c-4-5-9.38-11.85-9.26-21.1a23.21,23.21,0,0,1,3.09-11.6,22.89,22.89,0,0,1,8.14-8.14,22.13,22.13,0,0,1,3.09-1.48,19.35,19.35,0,0,1-5.51-6.08c-2.49-4.43-2.3-8.59-.75-32.12,0-.1,0-.19,0-.28l1.36.07c1.18-.7,3-1.77,5.13-3.11,3.25-2,4.59-2.92,6.15-3.88a89.63,89.63,0,0,1,10.18-5.29c6.91-3.26,6.12-2.33,12.44-5.29s9.26-4.9,14.31-5a20.62,20.62,0,0,1,3.42.24q.74.1,1.68.18l.51,0c5.69.41,16.89.12,39.11-1.93a85.13,85.13,0,0,1,6.63-7.34l1.14-1.1.45-.41c.6-.55,1.34-1.22,2.21-2l.91-.78.56-.47a91.94,91.94,0,0,1,8.82-6.59l.56.88q12.74,5,25.68,10.23,8,3.27,15.89,6.56a50.54,50.54,0,0,0-7.09-9.43,72.12,72.12,0,0,0-5.93-5.39c-7.95-6.72-11.72-8.81-11.4-9.43,0-.09.16-.13.35-.13,1.34,0,6.49,2.14,17.52,6.24,11.37,4.22,13.71,4.85,18.59,7.45,5.9,3.14,9.09,4.85,11.94,8.08,4.62,5.26,5.68,11.53,6.37,22.72a286.81,286.81,0,0,1-.09,36.45l1.21.11a38.66,38.66,0,0,0,.38,9.43c1.85,12,7.83,15,10.4,23.67S745.86,387.23,741.44,399.05Z" transform="translate(-427.14 -192.25)"/><path class="cls-1" d="M571.7,361.07a24.92,24.92,0,0,0,12.94-1.44c-2.31-21.28,2.23-33.21,7.19-40.27,1.61-2.28,3.83-4.88,5.4-9.35,3.5-10,.46-20.3-2.88-27.68-4.51,1.59-9.86,3.6-15.82,6.11-2.4,1-1.26.58-9.71,4.32-10.7,4.74-12.57,5.46-15.46,7.55-.35.25-5.18,3.77-7.55,7.19C536.3,321.25,550.27,357.33,571.7,361.07Z" transform="translate(-427.14 -192.25)"/><path class="cls-3" d="M787.62,271.08a22.3,22.3,0,0,1-4.2,1.69c-4,1.29-5.3.36-12.4.86a82.51,82.51,0,0,0-11.66,1.72,91.53,91.53,0,0,0-11,3.08l-.12-1-1.09-1.32c-3.45-4.13-7-7.83-9.75-10.58l1.1-.84-23.85-31.25-.17-1.75,2.19-.2,1.48-.1,1.34-.07.63,0h.22l.94,0c1,0,2.13,0,3.22,0,6.82.07,17.32.27,29.55,5.47,5.44,2.31,15.86,6.89,24.31,17.8a53.4,53.4,0,0,1,8,14.65Z" transform="translate(-427.14 -192.25)"/><path class="cls-4" d="M738.46,264.73l-1.1.84c-1.67-1.65-3.09-2.95-4.09-3.78-6-5.08-16.51-9.76-27.68-11-19.75-2.15-34.86,7.29-42.83,12.27a89.45,89.45,0,0,0-9.88,7.27l-.77-.71a97.09,97.09,0,0,1,11.28-13.15c5.07-4.94,15.05-14.47,31.18-20.35.53-.19,1.38-.5,2.53-.87l.83-.26c.67-.2,1.41-.42,2.23-.64l.77-.21c1.05-.28,2.21-.56,3.47-.83l1-.21,1.38-.27c.55-.11,1.13-.21,1.71-.31l1.34-.22,1.8-.26.93-.12,1.74-.2.18,0,.17,1.75Z" transform="translate(-427.14 -192.25)"/><path class="cls-5" d="M791,267.5a7.33,7.33,0,0,1-3.41,3.58l-1.28-1.9a53.4,53.4,0,0,0-8-14.65c-8.45-10.91-18.87-15.49-24.31-17.8-12.23-5.2-22.73-5.4-29.55-5.47-1.09,0-2.17,0-3.22,0l-.94,0h-.22l-.63,0-1.34.07-1.48.1-2.19.2-.18,0-1.74.2-.93.12-1.8.26-1.34.22c-.58.1-1.16.2-1.71.31l-1.38.27-1,.21c-1.26.27-2.42.55-3.47.83l-.77.21c-.82.22-1.56.44-2.23.64l-.83.26c-1.15.37-2,.68-2.53.87-16.13,5.88-26.11,15.41-31.18,20.35a97.09,97.09,0,0,0-11.28,13.15l.77.71-.56.47-.91.78c-.87.77-1.61,1.44-2.21,2l-.45.41-1.14,1.1a85.13,85.13,0,0,0-6.63,7.34c-21.31,1.21-37.1,1.94-39.11,1.93l-.51,0,.26-3.29c3.15-3.59,7.57-8.47,13-14.1,8.67-8.94,14.79-15.25,22-20.8A103.43,103.43,0,0,1,705.28,225l.25-5.16c.48,1.54.81,2.93,1.06,4.13a99.3,99.3,0,0,1,43.33,4.17,82.75,82.75,0,0,1,22.33,11.42,66,66,0,0,1,16.94,19.39C790.72,261.64,792.13,264.69,791,267.5Z" transform="translate(-427.14 -192.25)"/><path class="cls-5" d="M705.53,219.8l-.25,5.16a103.43,103.43,0,0,0-68.62,21.19c-7.22,5.55-13.34,11.86-22,20.8-5.46,5.63-9.88,10.51-13,14.1l-.26,3.29c-.9-.08-1.68-.18-1.68-.18l-.54-.08a21.89,21.89,0,0,0-2.88-.16c-5,.08-8,2-14.31,5s-5.53,2-12.44,5.29a89.63,89.63,0,0,0-10.18,5.29c-1.56,1-2.9,1.87-6.15,3.88-2.16,1.34-3.95,2.41-5.13,3.11l-1.36-.07c.12-1.84.12-1.79.12-1.84,1.09-21.75-9.77-23.65-6.63-39.52,2-10,8.56-16.78,21.72-30.43,17.17-17.8,33.42-26.61,37.93-29A112.59,112.59,0,0,1,627,195c16.11-3.92,28.2-2.84,43.56-1.47,12.42,1.1,17.13,2.77,21.23,5.76,6.46,4.72,10,11.73,11.17,14A43.29,43.29,0,0,1,705.53,219.8Z" transform="translate(-427.14 -192.25)"/><path class="cls-6" d="M697.77,404.39a37.65,37.65,0,0,1-19.13,10.17c-5.85,1.05-10.88.32-15.91-.41a50.46,50.46,0,0,1-15.09-4.08c-.92-.42-5.25-3.59-13.87-9.89-2-1.46-4.59-3.42-5.21-6.63a8,8,0,0,1,0-2.86l2.88.06c1,.43,2.11.89,3.29,1.37,12.91,5.3,19.36,7.95,26.07,9.4,9.09,2,16.51,1.71,29.92,1.28,2.45-.08,4.78-.2,6.94-.33Z" transform="translate(-427.14 -192.25)"/><path class="cls-7" d="M679.71,433.45c-4.47,5.36-7.29,8.16-11.64,9.09-7.45,1.6-14.23-3-18-5.55-4.45-3-7.3-6.23-11.86-13.12l1.62,0a44.08,44.08,0,0,0,14.59,7.24c4.36,1.22,6.55,1.83,9.59,1.43,5.9-.78,9.28-4.56,12.44-3a5.23,5.23,0,0,1,2.34,2.86Z" transform="translate(-427.14 -192.25)"/><path d="M708.66,401.52a38.08,38.08,0,0,0-6.83,3.84C692.44,412,691.64,419,681.74,431c-.72.87-1.39,1.69-2,2.45l-.87-1a5.23,5.23,0,0,0-2.34-2.86,3.52,3.52,0,0,0-1.63-.39l0-.43a36.18,36.18,0,0,0-6.38-4,38.14,38.14,0,0,0-12.85-3.6,47.86,47.86,0,0,0-17.42,1.14l-1,.06c-2.32-3.57-3.92-6.2-4.23-6.7-4.88-8-17.6-24.35-15.14-28.81a1,1,0,0,1,.19-.25c1.27-1.29,4.11.28,13.37,4.19l-2.88-.06a8,8,0,0,0,0,2.86c.62,3.21,3.21,5.17,5.21,6.63,8.62,6.3,13,9.47,13.87,9.89a50.46,50.46,0,0,0,15.09,4.08c5,.73,10.06,1.46,15.91.41a37.65,37.65,0,0,0,19.13-10.17l-.11-1.92C702,402.2,705.72,401.85,708.66,401.52Z" transform="translate(-427.14 -192.25)"/><path class="cls-8" d="M704.39,377.59c-1.83,5.77-7.39,8.59-9.83,9.83-10.33,5.23-26.94,4.81-33.33-5.13-1.14-1.78-3-5.48-2.57-11.54l2.56,0a24.46,24.46,0,0,1,3.82,2c2.67,1.74,3.4,3,5.62,4.72a18.22,18.22,0,0,0,7,3.82c2.56.63,4.78.2,9.21-.68s6.63-1.3,9-2.69a18.35,18.35,0,0,0,7-7.64l1.55-.68A13.89,13.89,0,0,1,704.39,377.59Z" transform="translate(-427.14 -192.25)"/><path class="cls-8" d="M704.32,369.59a64,64,0,0,0-2.07-6.11A47.63,47.63,0,0,0,695,350.66Z" transform="translate(-427.14 -192.25)"/><path class="cls-9" d="M687.3,327.59c-1.51,6.41,2.51,11.39,3,12,3,3.64,7,4.51,9.83,5.13s10.68,2.35,15.81-2.56a13.46,13.46,0,0,0,3.84-8.55,14.69,14.69,0,0,0-3-9.83c-4.29-5.86-13.14-9-20.51-6C694.42,318.53,688.77,321.3,687.3,327.59Z" transform="translate(-427.14 -192.25)"/><path class="cls-9" d="M628.32,339.13c1.21,2,3,2.82,6.41,4.27,5.88,2.5,13.32,5.68,20.09,2.14a13.77,13.77,0,0,0,6.41-6.84c2.58-6.45-1.44-12.61-2.14-13.68a17.59,17.59,0,0,0-12.39-7.69c-9.92-1-15.87,7.57-16.24,8.12S625.09,333.71,628.32,339.13Z" transform="translate(-427.14 -192.25)"/><path class="cls-1" d="M697.13,299.38c-.85-2.27.7-5,2.13-6.41,5.69-5.44,21.9-.65,26.5,9,2.24,4.71,1.94,11.05.42,11.54-1,.3-2.06-1.89-3.84-3.85C714.1,300.56,699.27,305.12,697.13,299.38Z" transform="translate(-427.14 -192.25)"/><path class="cls-1" d="M657.81,298.1c.85-1.46-.09-3.61-.85-4.7-.52-.73-2.11-2.6-8.12-3-4.32-.28-10.93-.71-17.52,3.85-7,4.8-7.86,11-9.38,13.14a.13.13,0,0,0,0,.1c.18.46,6.26-1.52,6.84-1.71,8.63-2.82,8.78-5.05,14.1-6.41C650.75,297.37,656.24,300.81,657.81,298.1Z" transform="translate(-427.14 -192.25)"/><path class="cls-4" d="M578.29,333.23" transform="translate(-427.14 -192.25)"/><path class="cls-4" d="M578.29,333.23" transform="translate(-427.14 -192.25)"/><path class="cls-4" d="M582.55,339.57l-4.26-6.34" transform="translate(-427.14 -192.25)"/><path class="cls-4" d="M576.65,328a27,27,0,0,0,8.67,13.23" transform="translate(-427.14 -192.25)"/><path class="cls-4" d="M584.88,341.91" transform="translate(-427.14 -192.25)"/><path class="cls-10" d="M608.49,323.52l-4.08,3.75,0,0a5.68,5.68,0,0,1-1.91-3.12v-.06Z" transform="translate(-427.14 -192.25)"/><path class="cls-11" d="M604.41,327.27,590.88,339.7l-.58.29-.29-.56a21.3,21.3,0,0,1-9.26-13s0-.41,13.85-1.66l7.18-.65.59-.05h.09v.06a5.68,5.68,0,0,0,1.91,3.12Z" transform="translate(-427.14 -192.25)"/><path class="cls-12" d="M590.3,340l-3,1.53-2.14,1.08-46.53,23.5c-.59-.33-9.28-5.41-9.21-13.82a13,13,0,0,1,1.44-5.75l45.64-18.85,2-.83,2-.81.26,0,0,.41a21.3,21.3,0,0,0,9.26,13Z" transform="translate(-427.14 -192.25)"/><path class="cls-13" d="M603.88,327.5l-1-1.36" transform="translate(-427.14 -192.25)"/><path class="cls-4" d="M698.53,403.65c-.24.24-.49.49-.76.74" transform="translate(-427.14 -192.25)"/><circle class="cls-14" cx="214.81" cy="145.59" r="6.66"/><circle class="cls-14" cx="269.97" cy="145.01" r="6.24"/><path class="cls-15" d="M674.89,428.73l0,.43c-2.74,0-5.9,2.7-10.81,3.35-3,.4-5.23-.21-9.59-1.43a44.08,44.08,0,0,1-14.59-7.24l-1.62,0c-.13-.19-.32-.48-.54-.83l-.47-.72,1-.06a47.86,47.86,0,0,1,17.42-1.14,38.14,38.14,0,0,1,12.85,3.6A36.18,36.18,0,0,1,674.89,428.73Z" transform="translate(-427.14 -192.25)"/><path class="cls-4" d="M705.66,225l-.38,0" transform="translate(-427.14 -192.25)"/><path class="cls-4" d="M601.62,281.05l-.62.7" transform="translate(-427.14 -192.25)"/><path class="cls-16" d="M738.46,264.73l-1.1.84c-1.67-1.65-3.09-2.95-4.09-3.78-6-5.08-16.51-9.76-27.68-11-19.75-2.15-34.86,7.29-42.83,12.27a89.45,89.45,0,0,0-9.88,7.27l-.77-.71a97.09,97.09,0,0,1,11.28-13.15c5.07-4.94,15.05-14.47,31.18-20.35.53-.19,1.38-.5,2.53-.87l.83-.26c.67-.2,1.41-.42,2.23-.64l.77-.21c1.05-.28,2.21-.56,3.47-.83l1-.21,1.38-.27c.55-.11,1.13-.21,1.71-.31l1.34-.22,1.8-.26.93-.12,1.74-.2.18,0,.17,1.75Z" transform="translate(-427.14 -192.25)"/><path class="cls-4" d="M738.88,265.28l-.42-.55" transform="translate(-427.14 -192.25)"/><path class="cls-17" d="M783.52,764.94l-.86-.05h-6.43c0-5.07,0-19.88-.31-34.91-.07-3.86-.19-9.28-.81-16.44-.34-3.91-.73-7.14-1-9.38h4.6L780,704c.47,4.38.88,8.91,1.21,13.56C782.69,739.1,784.2,753.73,783.52,764.94Z" transform="translate(-427.14 -192.25)"/><polygon class="cls-4" points="293.55 545.03 293.55 554.04 320.01 551.81 320.01 572.69 280.89 574.58 279.2 527.01 320.01 524.2 320.01 542.57 293.55 545.03"/><path class="cls-5" d="M782.66,764.89h-6.43v-1.38c0-.71,0-1.53,0-2.44s0-2.22,0-3.5c0-2.19,0-4.68,0-7.4h0c0-2.44,0-5.06-.07-7.79,0-.62,0-1.25,0-1.88,0-.26,0-.51,0-.77,0-1.36,0-2.74-.06-4.13,0-1.85,0-3.73-.09-5.61-.07-3.86-.19-9.28-.81-16.44-.34-3.91-.73-7.14-1-9.38h4.6L780,704a381.18,381.18,0,0,0-9-50.14l-.06-.24c-1.85-7.44-3.55-13.38-4.76-17.53-3.4-11.69-9-28.63-11.42-36.14-.09-.28-.19-.56-.27-.84l-.91.3-.61.2c-.09.24-.19.51-.32.81a11.7,11.7,0,0,1-2.82,4,13.21,13.21,0,0,1-8.27,3.14,16.91,16.91,0,0,1-9.77-2.15,17.79,17.79,0,0,1-6.12-6.12c-5.33-8.37-6.31-17.27-8.27-25.32a68.87,68.87,0,0,0-2.43-8c-5.77.19-12.28.61-20.1,1.27-7.11.6-14.22,1.36-28.43,2.89-8.4.9-10.6,1.18-13.8,2,1.29,2.52,2.7,5.37,4.51,9,1.45,2.92,2.65,5.47,3.66,7.69a13.87,13.87,0,0,1,4.38,6.3,14.36,14.36,0,0,1,.18,7.52,10.4,10.4,0,0,1-.3,3.26c-.09.38-.2.77-.32,1.15s-.17.52-.27.78-.27.71-.42,1.06-.26.58-.41.87a18.79,18.79,0,0,1-1,1.74c-.25.39-.51.78-.78,1.16s-.42.56-.64.83-.37.45-.56.66a.86.86,0,0,1-.13.14l0,0-.17.18,0,.05a6.25,6.25,0,0,1-.44.45,16,16,0,0,1-1.36,1.24,3.07,3.07,0,0,1-.35.28l-.21.17c-.24.19-.49.37-.74.54s-.62.41-.94.6l-.08.05c-.27.17-.55.32-.84.47l-.14.07c-.3.16-.61.3-.92.44a20.85,20.85,0,0,1-11.46,1.18,19.57,19.57,0,0,1-8.59-3,19,19,0,0,1-5.9-6.57c-11.21-19.55-13.47-27.13-13.47-27.13-.16-.55-.33-1.09-.51-1.63-2,.75-4.21,2-4.8,4a4.81,4.81,0,0,0,.16,2.89c2.3,6.78-3.61,26.23-4.18,28.44-3.35,13.12-6.14,24-15.26,34.86a58.18,58.18,0,0,1-26.35,18.32A55.37,55.37,0,0,1,548.52,673l-1.28-.15c-.11.95-.23,1.87-.36,2.78,5.36,3.84,8.92,6,12.11,6.71,1.16.27,9.87,2.18,18.15-1a54.67,54.67,0,0,1,9.23-3.37,61.62,61.62,0,0,0,7.32-1.76,33.52,33.52,0,0,0,6.44-3.07c6.43-3.79,11.21-6.61,15.23-8s9.36-1.11,20-.44c9.49.59,12.81,1.71,15.67,3.8.46.34,6,4.46,5,7.62-.45,1.41-2.07,2.21-4.54,2.93-5.5,1.58-10.18,1.23-20.94.14-5.11-.51-9.2-1-13.47.29-1.31.39-2.66.94-4.68,1.76-4.93,2-5.55,2.76-5.86,3.37s-1,2.23.59,5.42l24.3,1.61,2.22,1.49.57.4.12.08.41.28c2.65,1.84,6.36,4.51,10,7.45l1,.83c.6.5,1.2,1,1.79,1.51.19.15.38.31.56.48l.55.48.55.49a50.56,50.56,0,0,1,5.6,5.75l.36.46a16.85,16.85,0,0,1,1.61,2.46c.07.14.14.27.19.39a4,4,0,0,1,.17.37l.09.23c.05.13.1.27.14.4a2.42,2.42,0,0,1,.1.36,2.84,2.84,0,0,1,.1.45,3.77,3.77,0,0,1,.06.66,3.29,3.29,0,0,1,0,.45c-.43,3.31-2.2,4.39-2.2,4.39-1.65,1-3.87.42-5.42,0a17.54,17.54,0,0,1-4.24-1.9c-4.79-2.6-4.47-2-7-3.51-.51-.31-.91-.57-1.27-.82s-.49-.35-.71-.52l-.32-.25-.66-.54-.19-.15-.36-.3c-.87-.71-2-1.65-4.1-3.13a39.86,39.86,0,0,0-4.83-3.22c-1.92-1-2.8-1-8.5-2.35-6.12-1.4-9.2-2.24-10.83-.87a2.18,2.18,0,0,0-.88,1.46c-.06,1,1,1.87,1.47,2.2,1.91,1.42,3.71,1,7.17,1.46,1,.12,3.2.67,7.61,1.76,3.39.84,5.09,1.25,5.57,1.46a9.77,9.77,0,0,1,2.51,1.52c.15.13.3.26.43.39l.41.42.14.14.65.78.93,1.15.13.14q.36.42.81.87l0,0,.53.5,0,0,.62.53h0l.56.43.57.4c3.39,2.31,4.2,1.3,8.93,4.39.55.36-.1,0,4.83,4,1.66,1.34,2.6,2.09,2.64,3.22a3.76,3.76,0,0,1-1.32,2.49,9.77,9.77,0,0,1-4.54,2.93c-2.35.63-4.36,0-8.63-1.76-6.76-2.76-9.67-4.25-9.67-4.25-6.42-3.29-9.64-4.93-13.32-7l-.64-.36-.7-.4-.76-.43-.65-.36-.29-.16-.69-.37-.45-.24-.86-.45c-2.8-1.44-5.8-2.74-7.7-2.75a3.45,3.45,0,0,0-.57,0l-.2,0-.15,0-.25.11a3.32,3.32,0,0,0-1.32,1.32,3.6,3.6,0,0,0,0,2.49c1.14,3.46,20.27,4,31.19,13.91,1.34,1.22,5.73,5.21,4.68,8.49-.67,2.1-3.28,3-3.51,3.08-2.42.79-4.47-.22-7.32-1.32-6-2.31-4.66-.85-13-3.81-3.93-1.39-7-2.67-10-4-4.23-1.8-5-2.3-6.29-2.78-6-2.34-10.2.33-18.74,1.61-13,2-24.1-1.16-28.85-2.49a83.65,83.65,0,0,1-8.78-3.08l-2.08-.83c0,.45,0,.9-.07,1.35-.19,4.31-.37,8.41-.47,12.34-.38,15.82.59,28.81,7.78,41.08,14.6,24.91,45.29,30.65,88.84,38.8,37.11,6.94,64.24,12,95.59-.56,10.91-4.38,38.57-15.48,50.9-42.42a45,45,0,0,0,3.66-16.5Zm-87.3,15.73-.2-5.83L693,711.47l-.14-4L754.19,704l.08,2.31,2.23,61.76.22,6.06Z" transform="translate(-427.14 -192.25)"/><path class="cls-18" d="M662.68,611.55c-.25.39-.51.78-.78,1.16s-.42.56-.64.83-.37.45-.56.66l-.13.14,0,0-.17.18,0,.05a6.25,6.25,0,0,1-.44.45,16,16,0,0,1-1.36,1.24c-.11.1-.23.19-.35.28l-.21.17c-.24.19-.49.37-.74.54s-.62.41-.94.6l-.08.05c-.27.17-.55.32-.84.47l-.14.07c-.3.16-.61.3-.92.44a20.85,20.85,0,0,1-11.46,1.18,19.57,19.57,0,0,1-8.59-3,19,19,0,0,1-5.9-6.57c-11.21-19.55-13.47-27.13-13.47-27.13-.16-.55-.33-1.09-.51-1.63-8-25.47-24.91-48.28-34.9-61.79A223.24,223.24,0,0,0,563,500.14l-.55-1,3.85-2.13.42.76c1.17,1,3.36,3.45,5.3,5.36a76.87,76.87,0,0,1,7.4,8.46c6,7.83,8.35,9.95,12,14.68,3.94,5.13,5.46,8.15,18.56,33.47,13.35,25.82,13.37,25.79,14,27.37,2.59,6.83,6.86,13,9.27,19.85a14.56,14.56,0,0,0,3.76,6,14.3,14.3,0,0,0,5.29,3.06,18.29,18.29,0,0,0,9.63.47,22.25,22.25,0,0,0,10.45-5.17Z" transform="translate(-427.14 -192.25)"/><path class="cls-19" d="M597.87,775.19c-13.63.08-38.11,5.13-54.52,5.43-6.07-10.58-6.67-25-6.6-36.08,0-6.69-4.45-11.73-5.12-16.19s-.18-7.71,1.83-9.5,4.11-1,13.09-.47c10.81.59,6.67-.57,41.9-1.67l2.45-.07,0,.76,3.63,29.71,3.3,27Z" transform="translate(-427.14 -192.25)"/><path class="cls-4" d="M608.73,775.15c-3.51,0-7.13,0-10.86,0v-1l-3.3-27-3.63-29.71,0-.76c5.19-.16,7.78-.2,11.21-.26h.44c1,9.32,2.06,19.35,3.09,29.39S607.7,765.83,608.73,775.15Z" transform="translate(-427.14 -192.25)"/><path class="cls-19" d="M695.16,774.79q-2.62.13-5.31.24c-15.28.62-25.66.39-42.85.24-10.61-.1-23.44-.16-38.27-.12-1-9.32-2.06-19.35-3.09-29.39s-2.06-20.07-3.09-29.39c3.16-.06,7.14-.14,14.46-.37,6.46-.2,11.27-.38,15.08-.54l5.42-.26c2.45-.13,4.46-.26,6.4-.4,5.92-.41,7.85-.65,12.94-1.07,1.35-.11,2.92-.24,4.85-.38,10.36-.76,16.7-1,23-1.35,2.45-.13,5.13-.3,8.28-.53Z" transform="translate(-427.14 -192.25)"/><polygon class="cls-4" points="293.55 545.03 293.55 554.04 320.01 551.81 320.01 572.69 280.89 574.58 279.2 527.01 320.01 524.2 320.01 542.57 293.55 545.03"/><path class="cls-19" d="M767,750.24a50.89,50.89,0,0,1-1.5,12.41c-.43,1.74-.88,3.14-1.19,4.05-2.44.45-5.06.92-7.85,1.39l-2.23-61.76,8.9-.8c1.77,16.25,2.84,29.4,3.56,38.31C766.87,745.51,767,747.68,767,750.24Z" transform="translate(-427.14 -192.25)"/><path class="cls-20" d="M665.08,606c-.09.38-.2.77-.32,1.15s-.17.52-.27.78-.27.71-.42,1.06-.26.58-.41.87a18.79,18.79,0,0,1-1,1.74l-.38-.23a22.25,22.25,0,0,1-10.45,5.17,18.29,18.29,0,0,1-9.63-.47,14.3,14.3,0,0,1-5.29-3.06,14.56,14.56,0,0,1-3.76-6c-2.41-6.89-6.68-13-9.27-19.85-.61-1.58-.63-1.55-14-27.37-13.1-25.32-14.62-28.34-18.56-33.47-3.63-4.73-5.94-6.85-12-14.68a76.87,76.87,0,0,0-7.4-8.46c-1.94-1.91-4.13-4.39-5.3-5.36l-.42-.76,16.83-9.3.31.56a236.63,236.63,0,0,1,24.57,24c2.71,3.06,2,2.63,16.68,20.72,13.58,16.79,17.53,21.45,22.91,30.16,1.93,3.12,3.42,5.8,5.09,9,1.29,2.52,2.7,5.37,4.51,9,1.45,2.92,2.65,5.47,3.66,7.69a38.82,38.82,0,0,0-3.51-2.62c-2.36-1.62-4.66-3.2-8-3.48a14,14,0,0,0-12.56,6,14.68,14.68,0,0,0-2,5.55,15.86,15.86,0,0,0,.15,7.89,15.2,15.2,0,0,0,6.42,8c1.28.85,9.6,6.46,17.39,1.9a14.72,14.72,0,0,0,6.76-9.43A10.4,10.4,0,0,1,665.08,606Z" transform="translate(-427.14 -192.25)"/><path class="cls-21" d="M752.66,600.44a11.7,11.7,0,0,1-2.82,4,13.21,13.21,0,0,1-8.27,3.14,16.91,16.91,0,0,1-9.77-2.15,17.79,17.79,0,0,1-6.12-6.12c-5.33-8.37-6.31-17.27-8.27-25.32a68.87,68.87,0,0,0-2.43-8c-1.35-3.68-3.08-7.56-5.52-13q-.81-1.82-1.62-3.54c1.08,1.59,3.84,3.89,5.43,6.77a89.75,89.75,0,0,1,7.19,17.23c3.8,12.39,2.1,15.19,6.26,21.81,2.41,3.83,5.09,6.26,8.26,7.65a15.75,15.75,0,0,0,5.18,1.31,17.7,17.7,0,0,0,12-4Z" transform="translate(-427.14 -192.25)"/><path class="cls-22" d="M753.5,599.13l.09.3-.61.2c-.09.24-.19.51-.32.81l-.5-.22a17.7,17.7,0,0,1-12,4,15.75,15.75,0,0,1-5.18-1.31c-3.17-1.39-5.85-3.82-8.26-7.65-4.16-6.62-2.46-9.42-6.26-21.81a89.75,89.75,0,0,0-7.19-17.23c-1.59-2.88-4.35-5.18-5.43-6.77a197.14,197.14,0,0,0-14.43-25.25c-6-9.09-11.51-16.11-15.39-21-2.89-3.66-5.44-6.75-7.45-9.13l.78-2.12a92.44,92.44,0,0,1,15.06,7.31c13.09,7.9,20.36,16.77,32,31.27,8.34,10.37,17.38,21.61,25.08,38,.51,1.1,1,2.22,1.52,3.36.26.59.52,1.23.79,1.93-4.48-4.21-11.39-6.72-15.53-4a9.44,9.44,0,0,0-3.39,5,15,15,0,0,0,.11,9.61c.69,2.39,2.1,7.32,6.89,10.28.78.48,7.57,4.52,12.88,1a10.06,10.06,0,0,0,4.15-7.33c.84,2.51,1.77,5.34,2.82,8.52l-.28.14-.61.2Z" transform="translate(-427.14 -192.25)"/><path class="cls-4" d="M754.5,599.13l-.91.3-.09-.3-.64-2,.61-.2.28-.14c0,.11.07.22.11.34Z" transform="translate(-427.14 -192.25)"/><path class="cls-23" d="M715,566c-5.77.19-12.28.61-20.1,1.27-7.11.6-14.22,1.36-28.43,2.89-8.4.9-10.6,1.18-13.8,2-1.67-3.2-3.16-5.88-5.09-9-5.38-8.71-9.33-13.37-22.91-30.16-14.64-18.09-14-17.66-16.68-20.72a236.63,236.63,0,0,0-24.57-24l-.31-.56L600.7,478l2.61.47c-.21,1.49-.37,2.73-.48,3.62a88.27,88.27,0,0,0,15.48,19c11,10.13,20.73,13.85,31.6,18,2,.77,7.64,2.84,13.9,1.26,3.73-.94,4.8-2.46,5.05-2.84,2.34-3.59-.54-9.32-1.26-10.75-1.53-3-2.65-3.2-4.11-6.63a20.11,20.11,0,0,1-1.58-6,23.59,23.59,0,0,1,0-4.95l2.57.47c2,.58,4.3,1.33,6.86,2.3l-.78,2.12c2,2.38,4.56,5.47,7.45,9.13,3.88,4.9,9.42,11.92,15.39,21a197.14,197.14,0,0,1,14.43,25.25q.81,1.73,1.62,3.54C711.9,558.45,713.63,562.33,715,566Z" transform="translate(-427.14 -192.25)"/><path class="cls-2" d="M667.6,506.72c.72,1.43,3.6,7.16,1.26,10.75-.25.38-1.32,1.9-5.05,2.84-6.26,1.58-11.89-.49-13.9-1.26-10.87-4.16-20.62-7.88-31.6-18a88.27,88.27,0,0,1-15.48-19c.11-.89.27-2.13.48-3.62.09-.67.2-1.39.31-2.15,1.09-7.34,1.74-9.34,1.89-12.93a35.37,35.37,0,0,0-.92-9.47l1.39.54a99.43,99.43,0,0,0,12.71,9.13A106.13,106.13,0,0,0,668,478.35l5.86.16c-3.82,0-7.74,3-8.48,3.6a10.53,10.53,0,0,0-3.5,7,23.59,23.59,0,0,0,0,4.95,20.11,20.11,0,0,0,1.58,6C665,503.52,666.07,503.68,667.6,506.72Z" transform="translate(-427.14 -192.25)"/><path class="cls-4" d="M670.57,494l-.82-1" transform="translate(-427.14 -192.25)"/><ellipse class="cls-2" cx="400.21" cy="375.4" rx="37.48" ry="44.28"/><path class="cls-23" d="M609.57,585.76a4.81,4.81,0,0,0,.16,2.89c2.3,6.78-3.61,26.23-4.18,28.44-3.35,13.12-6.14,24-15.26,34.86a58.18,58.18,0,0,1-26.35,18.32A55.37,55.37,0,0,1,548.52,673l-1.28-.15c.52-4.3,1-9,1.23-14.31.73-13.76.08-23.17-.55-33.88l-1.58.09-3.51,3a72.34,72.34,0,0,0-3.76-7.51c-.3-.53-.62-1.08-1-1.63a80.56,80.56,0,0,0-13-15.87c-10.43-10.37-15.64-15.56-23.1-19.89a75.25,75.25,0,0,0-27.68-9.38c-.67-.1-1.35-.18-2-.26,1.56-1.35,3.87-3.35,6.62-5.82,8.42-7.55,13.65-12.86,18.78-17.88,1.73-1.68,11-10.77,19.79-18.38a277.51,277.51,0,0,1,27.32-20.89h.8c0-.61,0-1.24,0-1.86l16.75-9.26.55,1A223.24,223.24,0,0,1,579.47,520c10,13.51,26.87,36.32,34.9,61.79C612.33,582.49,610.16,583.73,609.57,585.76Z" transform="translate(-427.14 -192.25)"/><path class="cls-2" d="M657.67,717c-.43,3.31-2.2,4.39-2.2,4.39-1.65,1-3.87.42-5.42,0a17.54,17.54,0,0,1-4.24-1.9c-4.79-2.6-4.47-2-7-3.51-2.77-1.68-2.59-2.09-7.61-5.71a39.86,39.86,0,0,0-4.83-3.22c-1.92-1-2.8-1-8.5-2.35-6.12-1.4-9.2-2.24-10.83-.87a2.18,2.18,0,0,0-.88,1.46c-.06,1,1,1.87,1.47,2.2,1.91,1.42,3.71,1,7.17,1.46,1,.12,3.2.67,7.61,1.76,3.39.84,5.09,1.25,5.57,1.46,4.31,1.86,3.86,4.27,8.34,7.32,3.39,2.31,4.2,1.3,8.93,4.39.55.36-.1,0,4.83,4,1.66,1.34,2.6,2.09,2.64,3.22a3.76,3.76,0,0,1-1.32,2.49,9.77,9.77,0,0,1-4.54,2.93c-2.35.63-4.36,0-8.63-1.76-6.76-2.76-9.67-4.25-9.67-4.25-6.42-3.29-9.64-4.93-13.32-7s-11.45-6.62-13.91-5.27a3.32,3.32,0,0,0-1.32,1.32,3.6,3.6,0,0,0,0,2.49c1.14,3.46,20.27,4,31.19,13.91,1.34,1.22,5.73,5.21,4.68,8.49-.67,2.1-3.28,3-3.51,3.08-2.42.79-4.47-.22-7.32-1.32-6-2.31-4.66-.85-13-3.81-3.93-1.39-7-2.67-10-4-4.23-1.8-5-2.3-6.29-2.78-6-2.34-10.2.33-18.74,1.61-13,2-24.1-1.16-28.85-2.49a83.65,83.65,0,0,1-8.78-3.08l-2.08-.83A140.91,140.91,0,0,1,516.38,720c-16.09-9.7-20.7-4.19-48.46-16-11.17-4.73-18.53-9.06-25.33-14.93-10.44-9-13-16.05-13.91-18.74a36.15,36.15,0,0,1-1.32-14.64c.52-6,2.2-10.89,11.42-28.55,5.52-10.57,8.29-15.86,10.4-19.18,5.91-9.3,12.12-16.89,19.76-26.21,2.15-2.62,3.94-4.75,5.13-6.15l.3-2.12a75.25,75.25,0,0,1,27.68,9.38c7.46,4.33,12.67,9.52,23.1,19.89a80.56,80.56,0,0,1,13,15.87c.34.55.66,1.1,1,1.63l-1.31.74c-8.61,9-15.07,15.73-18.45,19.32-.91,1-2.92,3.11-5.86,5.71-1.8,1.6-3.32,2.8-4.24,3.52,2.79,1.49,5.68,3.15,8.64,5,4.33,2.67,8.28,5.39,11.85,8.05,2,1.6,4.92,3.9,8.5,6.59,3.37,2.54,6.22,4.67,8.68,6.46,5.36,3.84,8.92,6,12.11,6.71,1.16.27,9.87,2.18,18.15-1a54.67,54.67,0,0,1,9.23-3.37,61.62,61.62,0,0,0,7.32-1.76,33.52,33.52,0,0,0,6.44-3.07c6.43-3.79,11.21-6.61,15.23-8s9.36-1.11,20-.44c9.49.59,12.81,1.71,15.67,3.8.46.34,6,4.46,5,7.62-.45,1.41-2.07,2.21-4.54,2.93-5.5,1.58-10.18,1.23-20.94.14-5.11-.51-9.2-1-13.47.29-1.31.39-2.66.94-4.68,1.76-4.93,2-5.55,2.76-5.86,3.37s-1,2.23.59,5.42l24.3,1.61C635.1,694,658.61,709.75,657.67,717Z" transform="translate(-427.14 -192.25)"/><path class="cls-2" d="M800.26,527.91l-.39.22a51,51,0,0,0-11.52,9.28l-.82-.2a17.38,17.38,0,0,1,.83-2.55,27.65,27.65,0,0,1,9-11.25l1.24,1.93Z" transform="translate(-427.14 -192.25)"/><path class="cls-4" d="M846.92,596.38l-6.22,5-1.05-1.3a18.12,18.12,0,0,0,.32-9.24,17.73,17.73,0,0,0-3.19-6.7c-.4-.53-.78-1-1.12-1.4A27.46,27.46,0,0,0,822,574.16a19.77,19.77,0,0,0,.42-8.51,20.59,20.59,0,0,0-2.53-6.62c-1.2-2.2-2.55-4.72-4.12-7.74,8,13.08,14.45,23.78,21.12,32.81,1.43,1.95,2.88,3.81,4.35,5.61S844.78,593.92,846.92,596.38Z" transform="translate(-427.14 -192.25)"/><path class="cls-2" d="M838.65,600.12l-.22,1.64c-.68.55-.09.77-.79,1.33l-10.92,8.83c-4.6,3.72-6.4,5.16-9.49,7.55-4.42,3.42-8.88,6.79-28.65,21.39l-17.19,12.67-.44.11-.94.24c-1.87-7.55-3.6-13.57-4.82-17.77-3.4-11.69-9-28.63-11.42-36.14l-.18-.54-.09-.3-.64-2,.61-.2.28-.14L791,578.32l1.69-.84c-1.12-3.07-2-6-2.78-8.8A92.24,92.24,0,0,1,786.79,548a41.31,41.31,0,0,1,.74-10.74l.82.2a51,51,0,0,1,11.52-9.28l.39-.22c4.65-2.66,9.6-4.27,19.16-7.56l1.11-.38,2.29-.75a9.5,9.5,0,0,0,1.32,4.31,6,6,0,0,0,1,1.22c2.05,1.84,5,1.83,7.29,2,0,.21-.08.42-.12.65l-.09.49c-.09.49-.18,1-.28,1.42a13.64,13.64,0,0,1-1.05,3.22q-.12.27-.27.54c-1.91,3.48-4.51,3.48-12.5,8.3a22.33,22.33,0,0,1-4.42,2.11,22.85,22.85,0,0,1-2.62.73c1.34,2.64,2.55,5,3.65,7.08,1.57,3,2.92,5.54,4.12,7.74a20.59,20.59,0,0,1,2.53,6.62,19.77,19.77,0,0,1-.42,8.51,27.46,27.46,0,0,1,13.66,8.62c.34.41.72.87,1.12,1.4a17.73,17.73,0,0,1,3.19,6.7A18.12,18.12,0,0,1,838.65,600.12Z" transform="translate(-427.14 -192.25)"/><path class="cls-12" d="M822.85,515.65a22.7,22.7,0,0,0,0,3.57c-1.12.36-2.26.74-3.4,1.13-9.56,3.29-14.51,4.9-19.16,7.56l-1.64-2.57-1.24-1.93c-6.5-10.1-31.83-43.21-43.88-59.9,9.32-6.41,15.47-9.93,24.8-16.33,10.87,17.87,36.18,50.87,45.53,63.73A18.54,18.54,0,0,0,822.85,515.65Z" transform="translate(-427.14 -192.25)"/><path class="cls-12" d="M894.38,597.42c-13.72,13.25-26.55,24.26-30.37,21.24a1.81,1.81,0,0,1-.45-.55c-2.32-4.33-10.81-13.86-17.64-21.73-2.14-2.46-4.11-4.75-5.68-6.67s-2.92-3.66-4.35-5.61c-6.67-9-13.15-19.73-21.12-32.81-1.1-2.1-2.31-4.44-3.65-7.08a22.85,22.85,0,0,0,2.62-.73,22.33,22.33,0,0,0,4.42-2.11c8-4.82,10.59-4.82,12.5-8.3a17.43,17.43,0,0,0,1.69-5.67c0-.23.08-.44.12-.65,1.7.13,3.1.35,3.62,1.46.87,1.86-2,3.42-1.48,6.71a7.68,7.68,0,0,0,5.92,5.83c2.59.43,4.8-1.09,5.06-.61s-2.68,1.75-3.35,4.25,1.29,5.3,2.63,6.55c2.57,2.42,6.83,3,11.34,1.71l.73.9a9.25,9.25,0,0,0-1.68,2.82,9.56,9.56,0,0,0-.36,5.3,10.48,10.48,0,0,0,7,7.93,7.3,7.3,0,0,0,3.73.24,6.52,6.52,0,0,0,3.2-1.93q1.8,2.18,3.54,4.25C881,582.55,888.83,591,894.38,597.42Z" transform="translate(-427.14 -192.25)"/><path class="cls-24" d="M807.77,405.07c0,1-10.54,5.1-17.54,11.63-5.53,5.16-5.53,5.16-8.22,7.59-4,3.58-6,6.22-6.8,8.41-1.26,3.59,1.17,7.76,3.63,10.9l1.78,2.89q-14,9.6-28,19.2l-1.92-2c-.51-.79-4.67-7-12.61-7.76a16,16,0,0,0-17,20.85l-8,1.7a23.1,23.1,0,0,1-2.18-9.22A25.2,25.2,0,0,1,714.86,456c11-19,25.93-35.14,25.93-35.14,23.15-24.93,41-42.41,45.89-42.9C798.64,376.75,807.84,398.72,807.77,405.07Z" transform="translate(-427.14 -192.25)"/><path class="cls-2" d="M824.53,511.88q2.78,3.82,5.3,7.22l-.05,0a2.65,2.65,0,0,0-.4-.22,2.33,2.33,0,0,0-.39-.19,11.54,11.54,0,0,0-2.11-.73c-1.34.41-2.69.83-4.06,1.28a22.7,22.7,0,0,1,0-3.57,18.54,18.54,0,0,1,1-4.74Z" transform="translate(-427.14 -192.25)"/><path class="cls-2" d="M879.53,556.94c-1.36,2.15-2.51,2.76-6.58,7-1.46,1.52-2.61,2.79-3.33,3.6l-9-16-8.46-15,0-.06h0l-9.26-16.38h0L833,502.78a11.26,11.26,0,0,1,5.49-2.65,11.81,11.81,0,0,1,9.17,2.58c.64.53,5.63,4.62,4.27,9.64-.89,3.32-4,4.92-4.92,5.35a13,13,0,0,1,8.66-.73c1.15.32,5.57,1.73,7.33,5.83.41,1,1.39,3.26.27,5.43a5.41,5.41,0,0,1-2.44,2.31,7.92,7.92,0,0,1,5.29-.2,8.34,8.34,0,0,1,5,5.36,6.35,6.35,0,0,1,.14,4.55,5.79,5.79,0,0,1-2,2.51c6.45.07,11.54,2.75,12.49,6.45C882.54,552.2,880.48,555.44,879.53,556.94Z" transform="translate(-427.14 -192.25)"/><path class="cls-2" d="M823,513.54c1.38-2.19,2.55-2.81,6.69-7.1,1.48-1.55,2.65-2.84,3.38-3.66l9.19,16.28,8.6,15.2,0,.06h0l9.4,16.64h0l9.93,17.58a11.44,11.44,0,0,1-5.58,2.69,12,12,0,0,1-9.31-2.62c-.65-.54-5.72-4.7-4.34-9.8.9-3.37,4-5,5-5.43a13.15,13.15,0,0,1-8.8.74c-1.17-.32-5.66-1.76-7.45-5.92-.41-1-1.41-3.31-.27-5.52a5.45,5.45,0,0,1,2.48-2.34,8.12,8.12,0,0,1-5.38.2,8.47,8.47,0,0,1-5.09-5.45,6.42,6.42,0,0,1-.15-4.62,5.92,5.92,0,0,1,2.08-2.55c-6.56-.07-11.73-2.79-12.69-6.55C819.92,518.35,822,515.06,823,513.54Z" transform="translate(-427.14 -192.25)"/><path class="cls-25" d="M665.38,602.69a14.72,14.72,0,0,1-6.76,9.43c-7.79,4.56-16.11-1-17.39-1.9a15.2,15.2,0,0,1-6.42-8,15.86,15.86,0,0,1-.15-7.89,14.68,14.68,0,0,1,2-5.55,14,14,0,0,1,12.56-6c3.39.28,5.69,1.86,8,3.48a38.82,38.82,0,0,1,3.51,2.62,13.87,13.87,0,0,1,4.38,6.3A14.36,14.36,0,0,1,665.38,602.69Z" transform="translate(-427.14 -192.25)"/><path class="cls-26" d="M750.93,588.32a10.06,10.06,0,0,1-4.15,7.33c-5.31,3.51-12.1-.53-12.88-1-4.79-3-6.2-7.89-6.89-10.28a15,15,0,0,1-.11-9.61,9.44,9.44,0,0,1,3.39-5c4.14-2.69,11.05-.18,15.53,4a16.71,16.71,0,0,1,1.64,1.73,16,16,0,0,1,3.5,7.91A18.23,18.23,0,0,1,750.93,588.32Z" transform="translate(-427.14 -192.25)"/><path class="cls-27" d="M756.5,768.09l-2.23-61.76-.08-2.31-61.36,3.42.14,4,.09,2.66,2.1,60.66.05,1.33.15,4.5,61.36-6.47Zm-5.69-24.34-3.66.31v20.88L708,766.83l-1.69-47.57,40.81-2.81v18.37l3.66-.34Z" transform="translate(-427.14 -192.25)"/><polygon class="cls-4" points="293.55 545.03 293.55 554.04 320.01 551.81 320.01 572.69 280.89 574.58 279.2 527.01 320.01 524.2 320.01 542.57 293.55 545.03"/><polygon class="cls-19" points="293.55 545.03 293.55 554.04 320.01 551.81 320.01 572.69 280.89 574.58 279.2 527.01 320.01 524.2 320.01 542.57 293.55 545.03"/><polygon class="cls-28" points="323.67 542.23 323.67 551.5 320.01 551.81 293.55 554.04 293.55 545.03 320.01 542.57 323.67 542.23"/><path class="cls-29" d="M695.21,776.12l-.84,0a25,25,0,0,0-12,2.56c-.81.42-2,1.14-4.24,2.56-6,3.73-6.52,4.57-8.65,5.22a13.76,13.76,0,0,1-8-.18c-5.17-1.73-7.65-6.39-9.19-9.28-4.26-8-3.53-15.93-3.09-20.67a43.17,43.17,0,0,1,3.53-14.13c3.54-8,8.59-12.58,13.17-16.78,3.19-2.94,6.44-5.87,11.66-8.22a37.11,37.11,0,0,1,10.07-2.91l5.49-.19,2.1,60.66Z" transform="translate(-427.14 -192.25)"/><path class="cls-5" d="M678.76,841.58c-.35,1.17-.75,2.45-1.18,3.86-4.9,16-7.87,19.34-10.65,32-1.51,6.86-2.26,10.29-2.37,14.49-.08,3.57.23,6.32-.59,11a67,67,0,0,1-2.07,7.69c-.51,1.8-2.43,8.53-3.55,14.79-1.59,8.89,0,8.13-1.48,13.91-1.09,4.32-2,5.07-6.51,15.38-1.7,4-3.26,7.78-4.14,10.06A136,136,0,0,0,640,987.16c-4.43,25.53,7.32,46,1.48,60.06a32.11,32.11,0,0,0-2.07,6.8c-.55,2.87-1.64,9.1,1.18,15.39,1.07,2.37,1.43,1.95,2.07,3.84a14.56,14.56,0,0,1,.45,6.88c0,.27-.08.54-.13.81l-3.27,7-3.3,3.1q-5.31,1.15-10.32,2.12c-14.14,2.7-26.39,4.28-36.19,5.25-15.7,1.55-30.62,2.09-45.58-3.69a34.53,34.53,0,0,1-10.05-5.6,18.59,18.59,0,0,1-4.23-5.45c-2.63-5.25-1.94-10.66-1.38-15.19.75-6.07,2.54-9.61,3.69-12.9,3.45-9.91,1.2-17.8,0-27.62-1.69-13.84.4-28.41,4.6-57.56,2.21-15.37,3.32-23,5.53-28.09,1.54-3.53,4-8.24,4.6-15.19a37.94,37.94,0,0,0-1.38-13.36c-4.39-17.07,1.73-24-1.38-50.19-1.79-15.07-4.17-15.78-5.07-30.39-.69-11.16-.92-57-.1-63.23,115.65,5,140.93,52.94,141.93,62.23C681.21,833.29,680.41,836.17,678.76,841.58Z" transform="translate(-427.14 -192.25)"/><path class="cls-5" d="M763.8,848.17c-4.28,18.6-10.11,36.87-13.38,55.68A71.43,71.43,0,0,1,745.6,921c-2.18,5.1-2.87,4.94-4.1,8.68-1.53,4.7-1.52,9.67-1.44,19.41.05,6.65.35,7.85,0,12.29-.26,3.25-.68,5.87-1.33,9.89-1.1,6.78-1.68,8.78-2.17,11.81-.68,4.22-.57,6.8,0,18.2,1.16,23.11,1.26,23.07,1,24.71-1.81,9.94-5.87,13-3.62,18.8,1.69,4.35,5.13,5.56,5.42,10,.28,4.23-2.52,7.6-3.61,8.92a17.79,17.79,0,0,1-4.9,4,27.92,27.92,0,0,1-2.79,1.4c-21.21,9.35-68.17,4.33-80,14-.2.15-3.7,3-5,2.07-.77-.55-.35-2,0-4.15,0-.27.09-.54.13-.81,3.57-21.33.5-49.44,3.24-70.76,3.19-24.83,5.21-21.61,7.36-38.91,5.63-45.18,16.52-94.15,25-128.88q1.2-4.89,2.33-9.38c66.33-45.71,89.25-51.48,95.73-44.94C781,791.46,775.4,797.72,763.8,848.17Z" transform="translate(-427.14 -192.25)"/><path class="cls-30" d="M676.75,1156.4a26.35,26.35,0,0,1-3.22,6.63c-5.73,8.74-15.47,11.73-23.24,14-13.56,4-24.52,3.12-35.9,2.24-11-.85-20-1.64-30.24-6.71a75.41,75.41,0,0,1-14.9-10,60.4,60.4,0,0,1-9.68-10c-5.1-6.72-3.47-7.81-8.35-14.89-5-7.33-12.13-13.93-14.3-15.94-3.68-3.43-4.56-3.82-5.51-5.81-1.34-2.83-1.27-5.66.3-17,.45-3.27.87-6.06,1.19-8.19l1.38-1.64a34.53,34.53,0,0,0,10.05,5.6c15,5.78,29.88,5.24,45.58,3.69,9.8-1,22.05-2.55,36.19-5.25l.06.33c6,7.47,11.17,13.83,15.4,18.91l.83,1a77.13,77.13,0,0,0,8.65,9.24,99.13,99.13,0,0,0,9.12,7.07l1.6,1.12c3.86,2.67,5.6,4,9.09,6.71a17.09,17.09,0,0,1,4.17,4,15.46,15.46,0,0,1,2.53,7.15A18.44,18.44,0,0,1,676.75,1156.4Z" transform="translate(-427.14 -192.25)"/><path class="cls-31" d="M677.57,1156.48c-.05,3.75-.11,7.5-.16,11.26-3.18,4.56-5.39,7.72-6.79,9.75s-2,2.93-2,2.94c-5.91,7.07-14.31,8.86-25.58,11.26a99.91,99.91,0,0,1-43.29-.34,94.13,94.13,0,0,1-26.87-11.13c-7.44-4.37-13.27-7.89-17-14.65-1-1.87-1.49-3.3-4.2-8.48-3-5.73-4.49-8.6-6.45-11.27-2.17-3-2.79-3.09-9.5-10.45-2.22-2.44-4-4.46-5.15-5.76-.13-2.64-.16-5.45-.07-8.42.05-1.7.15-3.36.27-5l.62-.28c1,2,1.83,2.38,5.51,5.81,2.17,2,9.26,8.61,14.3,15.94,4.88,7.08,3.25,8.17,8.35,14.89a60.4,60.4,0,0,0,9.68,10,75.41,75.41,0,0,0,14.9,10c10.2,5.07,19.21,5.86,30.24,6.71,11.38.88,22.34,1.72,35.9-2.24,7.77-2.27,17.51-5.26,23.24-14a26.35,26.35,0,0,0,3.22-6.63Z" transform="translate(-427.14 -192.25)"/><path class="cls-30" d="M835.65,1109.23c-.15.28-.3.56-.47.82-2.54,3.89-7.5,5.19-10.89,6.08-36.63,9.59-33.11,9.38-36.72,9.73-10.46,1-20.57.29-40.78-1.21-15.94-1.19-24.12-1.83-34.9-4.26-8-1.81-10.51-3-19.27-4.47-3.59-.6-6.46-1-11-1.35l-2.07-.18c-3-.25-6.83-.53-11.86-.9l-24.35-1.83-1.76.76c-4.23-5.08-9.45-11.44-15.4-18.91l-.06-.33q5-1,10.32-2.12l3.3-3.1,3.27-7c-.37,2.1-.79,3.6,0,4.15,1.33.94,4.83-1.92,5-2.07,11.86-9.63,58.82-4.61,80-14a27.92,27.92,0,0,0,2.79-1.4l4.39-2.21c3.13.84,7.82,2.19,13.4,4.22,7.91,2.87,10.12,4.64,16.24,6.89,9.21,3.4,18.09,6.68,29.82,8.12,4.4.54,9,.79,18.46,1.83,1.85.2,5.39.59,9.94,1.21,1.75.24,3.21.45,4.26.61a18.64,18.64,0,0,1,6.7,6.49C834.26,1095.21,838.82,1103.07,835.65,1109.23Z" transform="translate(-427.14 -192.25)"/><path class="cls-31" d="M730.82,1067.66a27.92,27.92,0,0,1-2.79,1.4Z" transform="translate(-427.14 -192.25)"/><path class="cls-31" d="M836,1124.61c-3.22,6.65-11,10.88-33.5,13.79-14.28,1.86-35.23,4.41-64.43,0-25-3.77-37.53-5.66-43.85-8.61a37.18,37.18,0,0,0-13.63-3.91h0c-.45,0-.9-.06-1.36-.07a30.17,30.17,0,0,0-3.4.1,32,32,0,0,0-12.17,3.66l-3.47.16a99.13,99.13,0,0,1-9.12-7.07,77.13,77.13,0,0,1-8.65-9.24l-.83-1,1.76-.76,24.35,1.83c5,.37,8.81.65,11.86.9l2.07.18c4.56.4,7.43.75,11,1.35,8.76,1.47,11.26,2.66,19.27,4.47,10.78,2.43,19,3.07,34.9,4.26,20.21,1.5,30.32,2.25,40.78,1.21,3.61-.35.09-.14,36.72-9.73,3.39-.89,8.35-2.19,10.89-6.08l1.58,0C837.78,1114,838.48,1119.52,836,1124.61Z" transform="translate(-427.14 -192.25)"/><image width="500" height="273" transform="matrix(0.14, -0.02, 0.02, 0.16, 240.8, 428)" xlink:href="Logo.png"/></svg>